<?xml version="1.0" standalone="no"?>
<!DOCTYPE svg PUBLIC "-//W3C//DTD SVG 20010904//EN"
 "http://www.w3.org/TR/2001/REC-SVG-20010904/DTD/svg10.dtd">
<svg version="1.0" xmlns="http://www.w3.org/2000/svg"
 width="257.000000pt" height="257.000000pt" viewBox="0 0 257.000000 257.000000"
 preserveAspectRatio="xMidYMid meet">
<metadata>
Created by potrace 1.11, written by Peter Selinger 2001-2013
</metadata>
<g transform="translate(0.000000,257.000000) scale(0.100000,-0.100000)"
fill="#000000" stroke="none">
<path d="M239 2014 c23 -45 50 -90 61 -102 11 -12 20 -24 20 -27 0 -7 52 -65
118 -131 81 -82 277 -234 301 -234 5 0 11 -4 13 -8 2 -4 80 -55 173 -111 94
-57 188 -119 210 -136 43 -35 94 -118 100 -163 2 -15 4 -27 6 -27 8 0 4 -140
-6 -180 -46 -199 -165 -231 -309 -83 -47 50 -106 155 -106 191 0 27 -19 57
-35 57 -7 0 -15 3 -17 8 -4 9 -85 72 -93 72 -12 0 6 -93 31 -170 67 -199 222
-346 425 -404 104 -30 106 -30 199 40 71 53 244 150 252 142 4 -4 126 90 150
114 87 87 159 210 198 338 15 48 34 87 54 108 62 66 155 89 233 57 49 -21 51
-20 59 22 5 26 2 45 -11 70 -21 38 -51 56 -127 73 -63 14 -84 24 -81 39 6 23
-48 44 -110 43 -79 0 -121 -6 -242 -32 -27 -6 -62 -14 -77 -17 -41 -8 -34 -20
17 -27 54 -9 66 -22 26 -31 -32 -7 -32 -18 -1 -65 73 -108 27 -315 -112 -499
-47 -62 -170 -186 -225 -228 -21 -15 -40 -31 -43 -34 -21 -25 -93 -38 -105
-19 -3 6 -2 10 3 10 18 0 195 182 277 285 22 27 45 55 51 62 21 23 92 169 99
203 19 103 3 174 -53 237 -31 35 -152 113 -152 98 0 -2 -12 0 -27 6 -16 6 -35
12 -43 14 -38 9 -348 118 -455 160 -274 108 -502 223 -639 323 l-49 36 42 -80z"/>
<path d="M1239 1810 c-55 -7 -199 -46 -199 -55 0 -2 21 -14 48 -26 26 -11 58
-26 72 -33 15 -7 39 -9 60 -5 33 7 169 5 200 -3 42 -11 97 -33 127 -50 30 -18
39 -19 86 -8 82 18 81 18 66 36 -24 29 -115 83 -180 108 -93 35 -185 47 -280
36z"/>
<path d="M357 1692 c13 -32 96 -177 134 -234 95 -139 187 -237 329 -349 52
-42 114 -95 138 -120 47 -49 102 -149 102 -186 0 -12 4 -23 10 -23 14 0 47 39
66 79 23 47 24 53 29 141 7 138 -30 178 -325 350 -196 115 -356 228 -437 308
-29 28 -49 44 -46 34z"/>
<path d="M1881 944 c-1 -16 -108 -122 -173 -172 -30 -23 -101 -65 -159 -94
-110 -56 -209 -117 -209 -130 0 -26 140 10 250 64 65 32 101 58 160 117 74 75
147 189 137 214 -4 7 -6 8 -6 1z"/>
</g>
</svg>
